%TF.GenerationSoftware,KiCad,Pcbnew,(5.1.9)-1*%
%TF.CreationDate,2022-11-09T15:03:55+01:00*%
%TF.ProjectId,Wemos UNO,57656d6f-7320-4554-9e4f-2e6b69636164,rev?*%
%TF.SameCoordinates,Original*%
%TF.FileFunction,Legend,Top*%
%TF.FilePolarity,Positive*%
%FSLAX46Y46*%
G04 Gerber Fmt 4.6, Leading zero omitted, Abs format (unit mm)*
G04 Created by KiCad (PCBNEW (5.1.9)-1) date 2022-11-09 15:03:55*
%MOMM*%
%LPD*%
G01*
G04 APERTURE LIST*
%ADD10C,0.150000*%
%ADD11C,0.120000*%
G04 APERTURE END LIST*
D10*
X157719523Y-112410000D02*
X157595714Y-112348095D01*
X157410000Y-112348095D01*
X157224285Y-112410000D01*
X157100476Y-112533809D01*
X157038571Y-112657619D01*
X156976666Y-112905238D01*
X156976666Y-113090952D01*
X157038571Y-113338571D01*
X157100476Y-113462380D01*
X157224285Y-113586190D01*
X157410000Y-113648095D01*
X157533809Y-113648095D01*
X157719523Y-113586190D01*
X157781428Y-113524285D01*
X157781428Y-113090952D01*
X157533809Y-113090952D01*
X158338571Y-113648095D02*
X158338571Y-112348095D01*
X159081428Y-113648095D01*
X159081428Y-112348095D01*
X159700476Y-113648095D02*
X159700476Y-112348095D01*
X160010000Y-112348095D01*
X160195714Y-112410000D01*
X160319523Y-112533809D01*
X160381428Y-112657619D01*
X160443333Y-112905238D01*
X160443333Y-113090952D01*
X160381428Y-113338571D01*
X160319523Y-113462380D01*
X160195714Y-113586190D01*
X160010000Y-113648095D01*
X159700476Y-113648095D01*
X154359523Y-53061904D02*
X154421428Y-53000000D01*
X154545238Y-52938095D01*
X154854761Y-52938095D01*
X154978571Y-53000000D01*
X155040476Y-53061904D01*
X155102380Y-53185714D01*
X155102380Y-53309523D01*
X155040476Y-53495238D01*
X154297619Y-54238095D01*
X155102380Y-54238095D01*
X155535714Y-52938095D02*
X156402380Y-52938095D01*
X155845238Y-54238095D01*
X129202380Y-54208095D02*
X128459523Y-54208095D01*
X128830952Y-54208095D02*
X128830952Y-52908095D01*
X128707142Y-53093809D01*
X128583333Y-53217619D01*
X128459523Y-53279523D01*
X129635714Y-52908095D02*
X130440476Y-52908095D01*
X130007142Y-53403333D01*
X130192857Y-53403333D01*
X130316666Y-53465238D01*
X130378571Y-53527142D01*
X130440476Y-53650952D01*
X130440476Y-53960476D01*
X130378571Y-54084285D01*
X130316666Y-54146190D01*
X130192857Y-54208095D01*
X129821428Y-54208095D01*
X129697619Y-54146190D01*
X129635714Y-54084285D01*
X129262380Y-62108095D02*
X128519523Y-62108095D01*
X128890952Y-62108095D02*
X128890952Y-60808095D01*
X128767142Y-60993809D01*
X128643333Y-61117619D01*
X128519523Y-61179523D01*
X129757619Y-60931904D02*
X129819523Y-60870000D01*
X129943333Y-60808095D01*
X130252857Y-60808095D01*
X130376666Y-60870000D01*
X130438571Y-60931904D01*
X130500476Y-61055714D01*
X130500476Y-61179523D01*
X130438571Y-61365238D01*
X129695714Y-62108095D01*
X130500476Y-62108095D01*
X155042380Y-62108095D02*
X154299523Y-62108095D01*
X154670952Y-62108095D02*
X154670952Y-60808095D01*
X154547142Y-60993809D01*
X154423333Y-61117619D01*
X154299523Y-61179523D01*
X156156666Y-60808095D02*
X155909047Y-60808095D01*
X155785238Y-60870000D01*
X155723333Y-60931904D01*
X155599523Y-61117619D01*
X155537619Y-61365238D01*
X155537619Y-61860476D01*
X155599523Y-61984285D01*
X155661428Y-62046190D01*
X155785238Y-62108095D01*
X156032857Y-62108095D01*
X156156666Y-62046190D01*
X156218571Y-61984285D01*
X156280476Y-61860476D01*
X156280476Y-61550952D01*
X156218571Y-61427142D01*
X156156666Y-61365238D01*
X156032857Y-61303333D01*
X155785238Y-61303333D01*
X155661428Y-61365238D01*
X155599523Y-61427142D01*
X155537619Y-61550952D01*
X154952380Y-70228095D02*
X154209523Y-70228095D01*
X154580952Y-70228095D02*
X154580952Y-68928095D01*
X154457142Y-69113809D01*
X154333333Y-69237619D01*
X154209523Y-69299523D01*
X155385714Y-68928095D02*
X156252380Y-68928095D01*
X155695238Y-70228095D01*
X129232380Y-70198095D02*
X128489523Y-70198095D01*
X128860952Y-70198095D02*
X128860952Y-68898095D01*
X128737142Y-69083809D01*
X128613333Y-69207619D01*
X128489523Y-69269523D01*
X130346666Y-69331428D02*
X130346666Y-70198095D01*
X130037142Y-68836190D02*
X129727619Y-69764761D01*
X130532380Y-69764761D01*
X154209523Y-77421904D02*
X154271428Y-77360000D01*
X154395238Y-77298095D01*
X154704761Y-77298095D01*
X154828571Y-77360000D01*
X154890476Y-77421904D01*
X154952380Y-77545714D01*
X154952380Y-77669523D01*
X154890476Y-77855238D01*
X154147619Y-78598095D01*
X154952380Y-78598095D01*
X156128571Y-77298095D02*
X155509523Y-77298095D01*
X155447619Y-77917142D01*
X155509523Y-77855238D01*
X155633333Y-77793333D01*
X155942857Y-77793333D01*
X156066666Y-77855238D01*
X156128571Y-77917142D01*
X156190476Y-78040952D01*
X156190476Y-78350476D01*
X156128571Y-78474285D01*
X156066666Y-78536190D01*
X155942857Y-78598095D01*
X155633333Y-78598095D01*
X155509523Y-78536190D01*
X155447619Y-78474285D01*
X129292380Y-78348095D02*
X128549523Y-78348095D01*
X128920952Y-78348095D02*
X128920952Y-77048095D01*
X128797142Y-77233809D01*
X128673333Y-77357619D01*
X128549523Y-77419523D01*
X130035238Y-77605238D02*
X129911428Y-77543333D01*
X129849523Y-77481428D01*
X129787619Y-77357619D01*
X129787619Y-77295714D01*
X129849523Y-77171904D01*
X129911428Y-77110000D01*
X130035238Y-77048095D01*
X130282857Y-77048095D01*
X130406666Y-77110000D01*
X130468571Y-77171904D01*
X130530476Y-77295714D01*
X130530476Y-77357619D01*
X130468571Y-77481428D01*
X130406666Y-77543333D01*
X130282857Y-77605238D01*
X130035238Y-77605238D01*
X129911428Y-77667142D01*
X129849523Y-77729047D01*
X129787619Y-77852857D01*
X129787619Y-78100476D01*
X129849523Y-78224285D01*
X129911428Y-78286190D01*
X130035238Y-78348095D01*
X130282857Y-78348095D01*
X130406666Y-78286190D01*
X130468571Y-78224285D01*
X130530476Y-78100476D01*
X130530476Y-77852857D01*
X130468571Y-77729047D01*
X130406666Y-77667142D01*
X130282857Y-77605238D01*
X154209523Y-85761904D02*
X154271428Y-85700000D01*
X154395238Y-85638095D01*
X154704761Y-85638095D01*
X154828571Y-85700000D01*
X154890476Y-85761904D01*
X154952380Y-85885714D01*
X154952380Y-86009523D01*
X154890476Y-86195238D01*
X154147619Y-86938095D01*
X154952380Y-86938095D01*
X156066666Y-85638095D02*
X155819047Y-85638095D01*
X155695238Y-85700000D01*
X155633333Y-85761904D01*
X155509523Y-85947619D01*
X155447619Y-86195238D01*
X155447619Y-86690476D01*
X155509523Y-86814285D01*
X155571428Y-86876190D01*
X155695238Y-86938095D01*
X155942857Y-86938095D01*
X156066666Y-86876190D01*
X156128571Y-86814285D01*
X156190476Y-86690476D01*
X156190476Y-86380952D01*
X156128571Y-86257142D01*
X156066666Y-86195238D01*
X155942857Y-86133333D01*
X155695238Y-86133333D01*
X155571428Y-86195238D01*
X155509523Y-86257142D01*
X155447619Y-86380952D01*
X129322380Y-86908095D02*
X128579523Y-86908095D01*
X128950952Y-86908095D02*
X128950952Y-85608095D01*
X128827142Y-85793809D01*
X128703333Y-85917619D01*
X128579523Y-85979523D01*
X129941428Y-86908095D02*
X130189047Y-86908095D01*
X130312857Y-86846190D01*
X130374761Y-86784285D01*
X130498571Y-86598571D01*
X130560476Y-86350952D01*
X130560476Y-85855714D01*
X130498571Y-85731904D01*
X130436666Y-85670000D01*
X130312857Y-85608095D01*
X130065238Y-85608095D01*
X129941428Y-85670000D01*
X129879523Y-85731904D01*
X129817619Y-85855714D01*
X129817619Y-86165238D01*
X129879523Y-86289047D01*
X129941428Y-86350952D01*
X130065238Y-86412857D01*
X130312857Y-86412857D01*
X130436666Y-86350952D01*
X130498571Y-86289047D01*
X130560476Y-86165238D01*
X157354761Y-95798095D02*
X156921428Y-95179047D01*
X156611904Y-95798095D02*
X156611904Y-94498095D01*
X157107142Y-94498095D01*
X157230952Y-94560000D01*
X157292857Y-94621904D01*
X157354761Y-94745714D01*
X157354761Y-94931428D01*
X157292857Y-95055238D01*
X157230952Y-95117142D01*
X157107142Y-95179047D01*
X156611904Y-95179047D01*
X157788095Y-95798095D02*
X158469047Y-94931428D01*
X157788095Y-94931428D02*
X158469047Y-95798095D01*
X158778571Y-94498095D02*
X159521428Y-94498095D01*
X159150000Y-95798095D02*
X159150000Y-94498095D01*
X159830952Y-95798095D02*
X160511904Y-94931428D01*
X159830952Y-94931428D02*
X160511904Y-95798095D01*
X128549523Y-94771904D02*
X128611428Y-94710000D01*
X128735238Y-94648095D01*
X129044761Y-94648095D01*
X129168571Y-94710000D01*
X129230476Y-94771904D01*
X129292380Y-94895714D01*
X129292380Y-95019523D01*
X129230476Y-95205238D01*
X128487619Y-95948095D01*
X129292380Y-95948095D01*
X129725714Y-94648095D02*
X130530476Y-94648095D01*
X130097142Y-95143333D01*
X130282857Y-95143333D01*
X130406666Y-95205238D01*
X130468571Y-95267142D01*
X130530476Y-95390952D01*
X130530476Y-95700476D01*
X130468571Y-95824285D01*
X130406666Y-95886190D01*
X130282857Y-95948095D01*
X129911428Y-95948095D01*
X129787619Y-95886190D01*
X129725714Y-95824285D01*
X156550952Y-103668095D02*
X157355714Y-103668095D01*
X156922380Y-104163333D01*
X157108095Y-104163333D01*
X157231904Y-104225238D01*
X157293809Y-104287142D01*
X157355714Y-104410952D01*
X157355714Y-104720476D01*
X157293809Y-104844285D01*
X157231904Y-104906190D01*
X157108095Y-104968095D01*
X156736666Y-104968095D01*
X156612857Y-104906190D01*
X156550952Y-104844285D01*
X157974761Y-104906190D02*
X157974761Y-104968095D01*
X157912857Y-105091904D01*
X157850952Y-105153809D01*
X158408095Y-103668095D02*
X159212857Y-103668095D01*
X158779523Y-104163333D01*
X158965238Y-104163333D01*
X159089047Y-104225238D01*
X159150952Y-104287142D01*
X159212857Y-104410952D01*
X159212857Y-104720476D01*
X159150952Y-104844285D01*
X159089047Y-104906190D01*
X158965238Y-104968095D01*
X158593809Y-104968095D01*
X158470000Y-104906190D01*
X158408095Y-104844285D01*
X159584285Y-103668095D02*
X160017619Y-104968095D01*
X160450952Y-103668095D01*
X128799047Y-103698095D02*
X128922857Y-103698095D01*
X129046666Y-103760000D01*
X129108571Y-103821904D01*
X129170476Y-103945714D01*
X129232380Y-104193333D01*
X129232380Y-104502857D01*
X129170476Y-104750476D01*
X129108571Y-104874285D01*
X129046666Y-104936190D01*
X128922857Y-104998095D01*
X128799047Y-104998095D01*
X128675238Y-104936190D01*
X128613333Y-104874285D01*
X128551428Y-104750476D01*
X128489523Y-104502857D01*
X128489523Y-104193333D01*
X128551428Y-103945714D01*
X128613333Y-103821904D01*
X128675238Y-103760000D01*
X128799047Y-103698095D01*
X130408571Y-103698095D02*
X129789523Y-103698095D01*
X129727619Y-104317142D01*
X129789523Y-104255238D01*
X129913333Y-104193333D01*
X130222857Y-104193333D01*
X130346666Y-104255238D01*
X130408571Y-104317142D01*
X130470476Y-104440952D01*
X130470476Y-104750476D01*
X130408571Y-104874285D01*
X130346666Y-104936190D01*
X130222857Y-104998095D01*
X129913333Y-104998095D01*
X129789523Y-104936190D01*
X129727619Y-104874285D01*
X113697619Y-86148095D02*
X114502380Y-86148095D01*
X114069047Y-86643333D01*
X114254761Y-86643333D01*
X114378571Y-86705238D01*
X114440476Y-86767142D01*
X114502380Y-86890952D01*
X114502380Y-87200476D01*
X114440476Y-87324285D01*
X114378571Y-87386190D01*
X114254761Y-87448095D01*
X113883333Y-87448095D01*
X113759523Y-87386190D01*
X113697619Y-87324285D01*
X115678571Y-86148095D02*
X115059523Y-86148095D01*
X114997619Y-86767142D01*
X115059523Y-86705238D01*
X115183333Y-86643333D01*
X115492857Y-86643333D01*
X115616666Y-86705238D01*
X115678571Y-86767142D01*
X115740476Y-86890952D01*
X115740476Y-87200476D01*
X115678571Y-87324285D01*
X115616666Y-87386190D01*
X115492857Y-87448095D01*
X115183333Y-87448095D01*
X115059523Y-87386190D01*
X114997619Y-87324285D01*
X129322380Y-112518095D02*
X128703333Y-112518095D01*
X128641428Y-113137142D01*
X128703333Y-113075238D01*
X128827142Y-113013333D01*
X129136666Y-113013333D01*
X129260476Y-113075238D01*
X129322380Y-113137142D01*
X129384285Y-113260952D01*
X129384285Y-113570476D01*
X129322380Y-113694285D01*
X129260476Y-113756190D01*
X129136666Y-113818095D01*
X128827142Y-113818095D01*
X128703333Y-113756190D01*
X128641428Y-113694285D01*
X129755714Y-112518095D02*
X130189047Y-113818095D01*
X130622380Y-112518095D01*
X113697619Y-112518095D02*
X114502380Y-112518095D01*
X114069047Y-113013333D01*
X114254761Y-113013333D01*
X114378571Y-113075238D01*
X114440476Y-113137142D01*
X114502380Y-113260952D01*
X114502380Y-113570476D01*
X114440476Y-113694285D01*
X114378571Y-113756190D01*
X114254761Y-113818095D01*
X113883333Y-113818095D01*
X113759523Y-113756190D01*
X113697619Y-113694285D01*
X115121428Y-113818095D02*
X115369047Y-113818095D01*
X115492857Y-113756190D01*
X115554761Y-113694285D01*
X115678571Y-113508571D01*
X115740476Y-113260952D01*
X115740476Y-112765714D01*
X115678571Y-112641904D01*
X115616666Y-112580000D01*
X115492857Y-112518095D01*
X115245238Y-112518095D01*
X115121428Y-112580000D01*
X115059523Y-112641904D01*
X114997619Y-112765714D01*
X114997619Y-113075238D01*
X115059523Y-113199047D01*
X115121428Y-113260952D01*
X115245238Y-113322857D01*
X115492857Y-113322857D01*
X115616666Y-113260952D01*
X115678571Y-113199047D01*
X115740476Y-113075238D01*
X113697619Y-103438095D02*
X114502380Y-103438095D01*
X114069047Y-103933333D01*
X114254761Y-103933333D01*
X114378571Y-103995238D01*
X114440476Y-104057142D01*
X114502380Y-104180952D01*
X114502380Y-104490476D01*
X114440476Y-104614285D01*
X114378571Y-104676190D01*
X114254761Y-104738095D01*
X113883333Y-104738095D01*
X113759523Y-104676190D01*
X113697619Y-104614285D01*
X115616666Y-103438095D02*
X115369047Y-103438095D01*
X115245238Y-103500000D01*
X115183333Y-103561904D01*
X115059523Y-103747619D01*
X114997619Y-103995238D01*
X114997619Y-104490476D01*
X115059523Y-104614285D01*
X115121428Y-104676190D01*
X115245238Y-104738095D01*
X115492857Y-104738095D01*
X115616666Y-104676190D01*
X115678571Y-104614285D01*
X115740476Y-104490476D01*
X115740476Y-104180952D01*
X115678571Y-104057142D01*
X115616666Y-103995238D01*
X115492857Y-103933333D01*
X115245238Y-103933333D01*
X115121428Y-103995238D01*
X115059523Y-104057142D01*
X114997619Y-104180952D01*
X113697619Y-94868095D02*
X114502380Y-94868095D01*
X114069047Y-95363333D01*
X114254761Y-95363333D01*
X114378571Y-95425238D01*
X114440476Y-95487142D01*
X114502380Y-95610952D01*
X114502380Y-95920476D01*
X114440476Y-96044285D01*
X114378571Y-96106190D01*
X114254761Y-96168095D01*
X113883333Y-96168095D01*
X113759523Y-96106190D01*
X113697619Y-96044285D01*
X115616666Y-95301428D02*
X115616666Y-96168095D01*
X115307142Y-94806190D02*
X114997619Y-95734761D01*
X115802380Y-95734761D01*
X114069047Y-77178095D02*
X114192857Y-77178095D01*
X114316666Y-77240000D01*
X114378571Y-77301904D01*
X114440476Y-77425714D01*
X114502380Y-77673333D01*
X114502380Y-77982857D01*
X114440476Y-78230476D01*
X114378571Y-78354285D01*
X114316666Y-78416190D01*
X114192857Y-78478095D01*
X114069047Y-78478095D01*
X113945238Y-78416190D01*
X113883333Y-78354285D01*
X113821428Y-78230476D01*
X113759523Y-77982857D01*
X113759523Y-77673333D01*
X113821428Y-77425714D01*
X113883333Y-77301904D01*
X113945238Y-77240000D01*
X114069047Y-77178095D01*
X115616666Y-77611428D02*
X115616666Y-78478095D01*
X115307142Y-77116190D02*
X114997619Y-78044761D01*
X115802380Y-78044761D01*
X114069047Y-68808095D02*
X114192857Y-68808095D01*
X114316666Y-68870000D01*
X114378571Y-68931904D01*
X114440476Y-69055714D01*
X114502380Y-69303333D01*
X114502380Y-69612857D01*
X114440476Y-69860476D01*
X114378571Y-69984285D01*
X114316666Y-70046190D01*
X114192857Y-70108095D01*
X114069047Y-70108095D01*
X113945238Y-70046190D01*
X113883333Y-69984285D01*
X113821428Y-69860476D01*
X113759523Y-69612857D01*
X113759523Y-69303333D01*
X113821428Y-69055714D01*
X113883333Y-68931904D01*
X113945238Y-68870000D01*
X114069047Y-68808095D01*
X114997619Y-68931904D02*
X115059523Y-68870000D01*
X115183333Y-68808095D01*
X115492857Y-68808095D01*
X115616666Y-68870000D01*
X115678571Y-68931904D01*
X115740476Y-69055714D01*
X115740476Y-69179523D01*
X115678571Y-69365238D01*
X114935714Y-70108095D01*
X115740476Y-70108095D01*
X113998095Y-62338095D02*
X113564761Y-61719047D01*
X113255238Y-62338095D02*
X113255238Y-61038095D01*
X113750476Y-61038095D01*
X113874285Y-61100000D01*
X113936190Y-61161904D01*
X113998095Y-61285714D01*
X113998095Y-61471428D01*
X113936190Y-61595238D01*
X113874285Y-61657142D01*
X113750476Y-61719047D01*
X113255238Y-61719047D01*
X114493333Y-62276190D02*
X114679047Y-62338095D01*
X114988571Y-62338095D01*
X115112380Y-62276190D01*
X115174285Y-62214285D01*
X115236190Y-62090476D01*
X115236190Y-61966666D01*
X115174285Y-61842857D01*
X115112380Y-61780952D01*
X114988571Y-61719047D01*
X114740952Y-61657142D01*
X114617142Y-61595238D01*
X114555238Y-61533333D01*
X114493333Y-61409523D01*
X114493333Y-61285714D01*
X114555238Y-61161904D01*
X114617142Y-61100000D01*
X114740952Y-61038095D01*
X115050476Y-61038095D01*
X115236190Y-61100000D01*
X115607619Y-61038095D02*
X116350476Y-61038095D01*
X115979047Y-62338095D02*
X115979047Y-61038095D01*
X113440952Y-54428095D02*
X113440952Y-53128095D01*
X113998095Y-53251904D02*
X114060000Y-53190000D01*
X114183809Y-53128095D01*
X114493333Y-53128095D01*
X114617142Y-53190000D01*
X114679047Y-53251904D01*
X114740952Y-53375714D01*
X114740952Y-53499523D01*
X114679047Y-53685238D01*
X113936190Y-54428095D01*
X114740952Y-54428095D01*
X116040952Y-54304285D02*
X115979047Y-54366190D01*
X115793333Y-54428095D01*
X115669523Y-54428095D01*
X115483809Y-54366190D01*
X115360000Y-54242380D01*
X115298095Y-54118571D01*
X115236190Y-53870952D01*
X115236190Y-53685238D01*
X115298095Y-53437619D01*
X115360000Y-53313809D01*
X115483809Y-53190000D01*
X115669523Y-53128095D01*
X115793333Y-53128095D01*
X115979047Y-53190000D01*
X116040952Y-53251904D01*
X131572095Y-49538000D02*
X131476857Y-49490380D01*
X131334000Y-49490380D01*
X131191142Y-49538000D01*
X131095904Y-49633238D01*
X131048285Y-49728476D01*
X131000666Y-49918952D01*
X131000666Y-50061809D01*
X131048285Y-50252285D01*
X131095904Y-50347523D01*
X131191142Y-50442761D01*
X131334000Y-50490380D01*
X131429238Y-50490380D01*
X131572095Y-50442761D01*
X131619714Y-50395142D01*
X131619714Y-50061809D01*
X131429238Y-50061809D01*
X132048285Y-50490380D02*
X132048285Y-49490380D01*
X132619714Y-50490380D01*
X132619714Y-49490380D01*
X133095904Y-50490380D02*
X133095904Y-49490380D01*
X133334000Y-49490380D01*
X133476857Y-49538000D01*
X133572095Y-49633238D01*
X133619714Y-49728476D01*
X133667333Y-49918952D01*
X133667333Y-50061809D01*
X133619714Y-50252285D01*
X133572095Y-50347523D01*
X133476857Y-50442761D01*
X133334000Y-50490380D01*
X133095904Y-50490380D01*
X137969809Y-49490380D02*
X138588857Y-49490380D01*
X138255523Y-49871333D01*
X138398380Y-49871333D01*
X138493619Y-49918952D01*
X138541238Y-49966571D01*
X138588857Y-50061809D01*
X138588857Y-50299904D01*
X138541238Y-50395142D01*
X138493619Y-50442761D01*
X138398380Y-50490380D01*
X138112666Y-50490380D01*
X138017428Y-50442761D01*
X137969809Y-50395142D01*
X139017428Y-50395142D02*
X139065047Y-50442761D01*
X139017428Y-50490380D01*
X138969809Y-50442761D01*
X139017428Y-50395142D01*
X139017428Y-50490380D01*
X139398380Y-49490380D02*
X140017428Y-49490380D01*
X139684095Y-49871333D01*
X139826952Y-49871333D01*
X139922190Y-49918952D01*
X139969809Y-49966571D01*
X140017428Y-50061809D01*
X140017428Y-50299904D01*
X139969809Y-50395142D01*
X139922190Y-50442761D01*
X139826952Y-50490380D01*
X139541238Y-50490380D01*
X139446000Y-50442761D01*
X139398380Y-50395142D01*
X140303142Y-49490380D02*
X140636476Y-50490380D01*
X140969809Y-49490380D01*
X151685809Y-49490380D02*
X152304857Y-49490380D01*
X151971523Y-49871333D01*
X152114380Y-49871333D01*
X152209619Y-49918952D01*
X152257238Y-49966571D01*
X152304857Y-50061809D01*
X152304857Y-50299904D01*
X152257238Y-50395142D01*
X152209619Y-50442761D01*
X152114380Y-50490380D01*
X151828666Y-50490380D01*
X151733428Y-50442761D01*
X151685809Y-50395142D01*
X152733428Y-50395142D02*
X152781047Y-50442761D01*
X152733428Y-50490380D01*
X152685809Y-50442761D01*
X152733428Y-50395142D01*
X152733428Y-50490380D01*
X153114380Y-49490380D02*
X153733428Y-49490380D01*
X153400095Y-49871333D01*
X153542952Y-49871333D01*
X153638190Y-49918952D01*
X153685809Y-49966571D01*
X153733428Y-50061809D01*
X153733428Y-50299904D01*
X153685809Y-50395142D01*
X153638190Y-50442761D01*
X153542952Y-50490380D01*
X153257238Y-50490380D01*
X153162000Y-50442761D01*
X153114380Y-50395142D01*
X154019142Y-49490380D02*
X154352476Y-50490380D01*
X154685809Y-49490380D01*
X144018095Y-49538000D02*
X143922857Y-49490380D01*
X143780000Y-49490380D01*
X143637142Y-49538000D01*
X143541904Y-49633238D01*
X143494285Y-49728476D01*
X143446666Y-49918952D01*
X143446666Y-50061809D01*
X143494285Y-50252285D01*
X143541904Y-50347523D01*
X143637142Y-50442761D01*
X143780000Y-50490380D01*
X143875238Y-50490380D01*
X144018095Y-50442761D01*
X144065714Y-50395142D01*
X144065714Y-50061809D01*
X143875238Y-50061809D01*
X144494285Y-50490380D02*
X144494285Y-49490380D01*
X145065714Y-50490380D01*
X145065714Y-49490380D01*
X145541904Y-50490380D02*
X145541904Y-49490380D01*
X145780000Y-49490380D01*
X145922857Y-49538000D01*
X146018095Y-49633238D01*
X146065714Y-49728476D01*
X146113333Y-49918952D01*
X146113333Y-50061809D01*
X146065714Y-50252285D01*
X146018095Y-50347523D01*
X145922857Y-50442761D01*
X145780000Y-50490380D01*
X145541904Y-50490380D01*
X134494000Y-117564857D02*
X134994000Y-117564857D01*
X135208285Y-118350571D02*
X134494000Y-118350571D01*
X134494000Y-116850571D01*
X135208285Y-116850571D01*
X135779714Y-118279142D02*
X135994000Y-118350571D01*
X136351142Y-118350571D01*
X136494000Y-118279142D01*
X136565428Y-118207714D01*
X136636857Y-118064857D01*
X136636857Y-117922000D01*
X136565428Y-117779142D01*
X136494000Y-117707714D01*
X136351142Y-117636285D01*
X136065428Y-117564857D01*
X135922571Y-117493428D01*
X135851142Y-117422000D01*
X135779714Y-117279142D01*
X135779714Y-117136285D01*
X135851142Y-116993428D01*
X135922571Y-116922000D01*
X136065428Y-116850571D01*
X136422571Y-116850571D01*
X136636857Y-116922000D01*
X137279714Y-118350571D02*
X137279714Y-116850571D01*
X137851142Y-116850571D01*
X137994000Y-116922000D01*
X138065428Y-116993428D01*
X138136857Y-117136285D01*
X138136857Y-117350571D01*
X138065428Y-117493428D01*
X137994000Y-117564857D01*
X137851142Y-117636285D01*
X137279714Y-117636285D01*
X138636857Y-116850571D02*
X139565428Y-116850571D01*
X139065428Y-117422000D01*
X139279714Y-117422000D01*
X139422571Y-117493428D01*
X139494000Y-117564857D01*
X139565428Y-117707714D01*
X139565428Y-118064857D01*
X139494000Y-118207714D01*
X139422571Y-118279142D01*
X139279714Y-118350571D01*
X138851142Y-118350571D01*
X138708285Y-118279142D01*
X138636857Y-118207714D01*
X140136857Y-116993428D02*
X140208285Y-116922000D01*
X140351142Y-116850571D01*
X140708285Y-116850571D01*
X140851142Y-116922000D01*
X140922571Y-116993428D01*
X140994000Y-117136285D01*
X140994000Y-117279142D01*
X140922571Y-117493428D01*
X140065428Y-118350571D01*
X140994000Y-118350571D01*
X142779714Y-118350571D02*
X142779714Y-116850571D01*
X143136857Y-116850571D01*
X143351142Y-116922000D01*
X143494000Y-117064857D01*
X143565428Y-117207714D01*
X143636857Y-117493428D01*
X143636857Y-117707714D01*
X143565428Y-117993428D01*
X143494000Y-118136285D01*
X143351142Y-118279142D01*
X143136857Y-118350571D01*
X142779714Y-118350571D01*
X145065428Y-118350571D02*
X144208285Y-118350571D01*
X144636857Y-118350571D02*
X144636857Y-116850571D01*
X144494000Y-117064857D01*
X144351142Y-117207714D01*
X144208285Y-117279142D01*
X147708285Y-118350571D02*
X147208285Y-117636285D01*
X146851142Y-118350571D02*
X146851142Y-116850571D01*
X147422571Y-116850571D01*
X147565428Y-116922000D01*
X147636857Y-116993428D01*
X147708285Y-117136285D01*
X147708285Y-117350571D01*
X147636857Y-117493428D01*
X147565428Y-117564857D01*
X147422571Y-117636285D01*
X146851142Y-117636285D01*
X148208285Y-116850571D02*
X149136857Y-116850571D01*
X148636857Y-117422000D01*
X148851142Y-117422000D01*
X148994000Y-117493428D01*
X149065428Y-117564857D01*
X149136857Y-117707714D01*
X149136857Y-118064857D01*
X149065428Y-118207714D01*
X148994000Y-118279142D01*
X148851142Y-118350571D01*
X148422571Y-118350571D01*
X148279714Y-118279142D01*
X148208285Y-118207714D01*
X149708285Y-116993428D02*
X149779714Y-116922000D01*
X149922571Y-116850571D01*
X150279714Y-116850571D01*
X150422571Y-116922000D01*
X150494000Y-116993428D01*
X150565428Y-117136285D01*
X150565428Y-117279142D01*
X150494000Y-117493428D01*
X149636857Y-118350571D01*
X150565428Y-118350571D01*
X135172571Y-119250571D02*
X135315428Y-119250571D01*
X135458285Y-119322000D01*
X135529714Y-119393428D01*
X135601142Y-119536285D01*
X135672571Y-119822000D01*
X135672571Y-120179142D01*
X135601142Y-120464857D01*
X135529714Y-120607714D01*
X135458285Y-120679142D01*
X135315428Y-120750571D01*
X135172571Y-120750571D01*
X135029714Y-120679142D01*
X134958285Y-120607714D01*
X134886857Y-120464857D01*
X134815428Y-120179142D01*
X134815428Y-119822000D01*
X134886857Y-119536285D01*
X134958285Y-119393428D01*
X135029714Y-119322000D01*
X135172571Y-119250571D01*
X136386857Y-120750571D02*
X136672571Y-120750571D01*
X136815428Y-120679142D01*
X136886857Y-120607714D01*
X137029714Y-120393428D01*
X137101142Y-120107714D01*
X137101142Y-119536285D01*
X137029714Y-119393428D01*
X136958285Y-119322000D01*
X136815428Y-119250571D01*
X136529714Y-119250571D01*
X136386857Y-119322000D01*
X136315428Y-119393428D01*
X136244000Y-119536285D01*
X136244000Y-119893428D01*
X136315428Y-120036285D01*
X136386857Y-120107714D01*
X136529714Y-120179142D01*
X136815428Y-120179142D01*
X136958285Y-120107714D01*
X137029714Y-120036285D01*
X137101142Y-119893428D01*
X137744000Y-120179142D02*
X138886857Y-120179142D01*
X139529714Y-119393428D02*
X139601142Y-119322000D01*
X139744000Y-119250571D01*
X140101142Y-119250571D01*
X140244000Y-119322000D01*
X140315428Y-119393428D01*
X140386857Y-119536285D01*
X140386857Y-119679142D01*
X140315428Y-119893428D01*
X139458285Y-120750571D01*
X140386857Y-120750571D01*
X141315428Y-119250571D02*
X141458285Y-119250571D01*
X141601142Y-119322000D01*
X141672571Y-119393428D01*
X141744000Y-119536285D01*
X141815428Y-119822000D01*
X141815428Y-120179142D01*
X141744000Y-120464857D01*
X141672571Y-120607714D01*
X141601142Y-120679142D01*
X141458285Y-120750571D01*
X141315428Y-120750571D01*
X141172571Y-120679142D01*
X141101142Y-120607714D01*
X141029714Y-120464857D01*
X140958285Y-120179142D01*
X140958285Y-119822000D01*
X141029714Y-119536285D01*
X141101142Y-119393428D01*
X141172571Y-119322000D01*
X141315428Y-119250571D01*
X142386857Y-119393428D02*
X142458285Y-119322000D01*
X142601142Y-119250571D01*
X142958285Y-119250571D01*
X143101142Y-119322000D01*
X143172571Y-119393428D01*
X143244000Y-119536285D01*
X143244000Y-119679142D01*
X143172571Y-119893428D01*
X142315428Y-120750571D01*
X143244000Y-120750571D01*
X143815428Y-119393428D02*
X143886857Y-119322000D01*
X144029714Y-119250571D01*
X144386857Y-119250571D01*
X144529714Y-119322000D01*
X144601142Y-119393428D01*
X144672571Y-119536285D01*
X144672571Y-119679142D01*
X144601142Y-119893428D01*
X143744000Y-120750571D01*
X144672571Y-120750571D01*
X146458285Y-120750571D02*
X146458285Y-119250571D01*
X147315428Y-120750571D02*
X146672571Y-119893428D01*
X147315428Y-119250571D02*
X146458285Y-120107714D01*
X147958285Y-120750571D02*
X147958285Y-119250571D01*
X147958285Y-119964857D02*
X148815428Y-119964857D01*
X148815428Y-120750571D02*
X148815428Y-119250571D01*
X150029714Y-119964857D02*
X149529714Y-119964857D01*
X149529714Y-120750571D02*
X149529714Y-119250571D01*
X150244000Y-119250571D01*
X143144761Y-82882761D02*
X141144761Y-82882761D01*
X141144761Y-82406571D01*
X141240000Y-82120857D01*
X141430476Y-81930380D01*
X141620952Y-81835142D01*
X142001904Y-81739904D01*
X142287619Y-81739904D01*
X142668571Y-81835142D01*
X142859047Y-81930380D01*
X143049523Y-82120857D01*
X143144761Y-82406571D01*
X143144761Y-82882761D01*
X143144761Y-80882761D02*
X141144761Y-80882761D01*
X141240000Y-78882761D02*
X141144761Y-79073238D01*
X141144761Y-79358952D01*
X141240000Y-79644666D01*
X141430476Y-79835142D01*
X141620952Y-79930380D01*
X142001904Y-80025619D01*
X142287619Y-80025619D01*
X142668571Y-79930380D01*
X142859047Y-79835142D01*
X143049523Y-79644666D01*
X143144761Y-79358952D01*
X143144761Y-79168476D01*
X143049523Y-78882761D01*
X142954285Y-78787523D01*
X142287619Y-78787523D01*
X142287619Y-79168476D01*
X143144761Y-77930380D02*
X141144761Y-77930380D01*
X141144761Y-77263714D02*
X141144761Y-76120857D01*
X143144761Y-76692285D02*
X141144761Y-76692285D01*
X142573333Y-75549428D02*
X142573333Y-74597047D01*
X143144761Y-75739904D02*
X141144761Y-75073238D01*
X143144761Y-74406571D01*
X143144761Y-72787523D02*
X143144761Y-73739904D01*
X141144761Y-73739904D01*
X111233333Y-111698095D02*
X111233333Y-110745714D01*
X111804761Y-111888571D02*
X109804761Y-111221904D01*
X111804761Y-110555238D01*
X111804761Y-109888571D02*
X109804761Y-109888571D01*
X111804761Y-108745714D01*
X109804761Y-108745714D01*
X111233333Y-107888571D02*
X111233333Y-106936190D01*
X111804761Y-108079047D02*
X109804761Y-107412380D01*
X111804761Y-106745714D01*
X111804761Y-105126666D02*
X111804761Y-106079047D01*
X109804761Y-106079047D01*
X109804761Y-104079047D02*
X109804761Y-103698095D01*
X109900000Y-103507619D01*
X110090476Y-103317142D01*
X110471428Y-103221904D01*
X111138095Y-103221904D01*
X111519047Y-103317142D01*
X111709523Y-103507619D01*
X111804761Y-103698095D01*
X111804761Y-104079047D01*
X111709523Y-104269523D01*
X111519047Y-104460000D01*
X111138095Y-104555238D01*
X110471428Y-104555238D01*
X110090476Y-104460000D01*
X109900000Y-104269523D01*
X109804761Y-104079047D01*
X109900000Y-101317142D02*
X109804761Y-101507619D01*
X109804761Y-101793333D01*
X109900000Y-102079047D01*
X110090476Y-102269523D01*
X110280952Y-102364761D01*
X110661904Y-102460000D01*
X110947619Y-102460000D01*
X111328571Y-102364761D01*
X111519047Y-102269523D01*
X111709523Y-102079047D01*
X111804761Y-101793333D01*
X111804761Y-101602857D01*
X111709523Y-101317142D01*
X111614285Y-101221904D01*
X110947619Y-101221904D01*
X110947619Y-101602857D01*
D11*
%TO.C,IO02*%
X116610000Y-67842000D02*
X124460000Y-67862000D01*
X124460000Y-72082000D02*
X124460000Y-66851600D01*
X116610000Y-72072400D02*
X124460000Y-72082000D01*
X116610000Y-72072400D02*
X116584600Y-66842000D01*
X116610000Y-66842000D02*
X124460000Y-66852000D01*
%TO.C,IO26*%
X145058000Y-84860000D02*
X152908000Y-84880000D01*
X152908000Y-89100000D02*
X152908000Y-83869600D01*
X145058000Y-89090400D02*
X152908000Y-89100000D01*
X145058000Y-89090400D02*
X145032600Y-83860000D01*
X145058000Y-83860000D02*
X152908000Y-83870000D01*
%TO.C,IO25*%
X145058000Y-75478000D02*
X152908000Y-75488000D01*
X145058000Y-80708400D02*
X145032600Y-75478000D01*
X145058000Y-80708400D02*
X152908000Y-80718000D01*
X152908000Y-80718000D02*
X152908000Y-75487600D01*
X145058000Y-76478000D02*
X152908000Y-76498000D01*
%TO.C,IO17*%
X145058000Y-68096000D02*
X152908000Y-68116000D01*
X152908000Y-72336000D02*
X152908000Y-67105600D01*
X145058000Y-72326400D02*
X152908000Y-72336000D01*
X145058000Y-72326400D02*
X145032600Y-67096000D01*
X145058000Y-67096000D02*
X152908000Y-67106000D01*
%TO.C,IO16*%
X145058000Y-58968000D02*
X152908000Y-58978000D01*
X145058000Y-64198400D02*
X145032600Y-58968000D01*
X145058000Y-64198400D02*
X152908000Y-64208000D01*
X152908000Y-64208000D02*
X152908000Y-58977600D01*
X145058000Y-59968000D02*
X152908000Y-59988000D01*
%TO.C,IO27*%
X145058000Y-52094000D02*
X152908000Y-52114000D01*
X152908000Y-56334000D02*
X152908000Y-51103600D01*
X145058000Y-56324400D02*
X152908000Y-56334000D01*
X145058000Y-56324400D02*
X145032600Y-51094000D01*
X145058000Y-51094000D02*
X152908000Y-51104000D01*
%TO.C,IO14*%
X131596000Y-67096000D02*
X139446000Y-67106000D01*
X131596000Y-72326400D02*
X131570600Y-67096000D01*
X131596000Y-72326400D02*
X139446000Y-72336000D01*
X139446000Y-72336000D02*
X139446000Y-67105600D01*
X131596000Y-68096000D02*
X139446000Y-68116000D01*
%TO.C,IO12*%
X131596000Y-58968000D02*
X139446000Y-58978000D01*
X131596000Y-64198400D02*
X131570600Y-58968000D01*
X131596000Y-64198400D02*
X139446000Y-64208000D01*
X139446000Y-64208000D02*
X139446000Y-58977600D01*
X131596000Y-59968000D02*
X139446000Y-59988000D01*
%TO.C,IO13*%
X131596000Y-52094000D02*
X139446000Y-52114000D01*
X139446000Y-56334000D02*
X139446000Y-51103600D01*
X131596000Y-56324400D02*
X139446000Y-56334000D01*
X131596000Y-56324400D02*
X131570600Y-51094000D01*
X131596000Y-51094000D02*
X139446000Y-51104000D01*
%TO.C,IO05*%
X131596000Y-101894000D02*
X139446000Y-101904000D01*
X131596000Y-107124400D02*
X131570600Y-101894000D01*
X131596000Y-107124400D02*
X139446000Y-107134000D01*
X139446000Y-107134000D02*
X139446000Y-101903600D01*
X131596000Y-102894000D02*
X139446000Y-102914000D01*
%TO.C,IO23*%
X131596000Y-93750000D02*
X139446000Y-93770000D01*
X139446000Y-97990000D02*
X139446000Y-92759600D01*
X131596000Y-97980400D02*
X139446000Y-97990000D01*
X131596000Y-97980400D02*
X131570600Y-92750000D01*
X131596000Y-92750000D02*
X139446000Y-92760000D01*
%TO.C,IO19*%
X131596000Y-83860000D02*
X139446000Y-83870000D01*
X131596000Y-89090400D02*
X131570600Y-83860000D01*
X131596000Y-89090400D02*
X139446000Y-89100000D01*
X139446000Y-89100000D02*
X139446000Y-83869600D01*
X131596000Y-84860000D02*
X139446000Y-84880000D01*
%TO.C,IO18*%
X131596000Y-76224000D02*
X139446000Y-76244000D01*
X139446000Y-80464000D02*
X139446000Y-75233600D01*
X131596000Y-80454400D02*
X139446000Y-80464000D01*
X131596000Y-80454400D02*
X131570600Y-75224000D01*
X131596000Y-75224000D02*
X139446000Y-75234000D01*
%TO.C,GND*%
X145058000Y-110530000D02*
X155738000Y-110540000D01*
X145058000Y-115760400D02*
X145032600Y-110530000D01*
X145058000Y-115760400D02*
X155738000Y-115770000D01*
X155738000Y-115770000D02*
X155738000Y-110539600D01*
X145058000Y-111530000D02*
X155728000Y-111550000D01*
%TO.C,5V*%
X131342000Y-111530000D02*
X142012000Y-111550000D01*
X142022000Y-115770000D02*
X142022000Y-110539600D01*
X131342000Y-115760400D02*
X142022000Y-115770000D01*
X131342000Y-115760400D02*
X131316600Y-110530000D01*
X131342000Y-110530000D02*
X142022000Y-110540000D01*
%TO.C,3.3V*%
X145058000Y-101894000D02*
X155738000Y-101904000D01*
X145058000Y-107124400D02*
X145032600Y-101894000D01*
X145058000Y-107124400D02*
X155738000Y-107134000D01*
X155738000Y-107134000D02*
X155738000Y-101903600D01*
X145058000Y-102894000D02*
X155728000Y-102914000D01*
%TO.C,G RST V*%
X116610000Y-59222000D02*
X124460000Y-59232000D01*
X116610000Y-64452400D02*
X116584600Y-59222000D01*
X116610000Y-64452400D02*
X124460000Y-64462000D01*
X124460000Y-64462000D02*
X124460000Y-59231600D01*
X116610000Y-60222000D02*
X124460000Y-60242000D01*
%TO.C,IO04*%
X116610000Y-76224000D02*
X124460000Y-76244000D01*
X124460000Y-80464000D02*
X124460000Y-75233600D01*
X116610000Y-80454400D02*
X124460000Y-80464000D01*
X116610000Y-80454400D02*
X116584600Y-75224000D01*
X116610000Y-75224000D02*
X124460000Y-75234000D01*
%TO.C,IO35*%
X116610000Y-83860000D02*
X124460000Y-83870000D01*
X116610000Y-89090400D02*
X116584600Y-83860000D01*
X116610000Y-89090400D02*
X124460000Y-89100000D01*
X124460000Y-89100000D02*
X124460000Y-83869600D01*
X116610000Y-84860000D02*
X124460000Y-84880000D01*
%TO.C,IO34*%
X116610000Y-94004000D02*
X124460000Y-94024000D01*
X124460000Y-98244000D02*
X124460000Y-93013600D01*
X116610000Y-98234400D02*
X124460000Y-98244000D01*
X116610000Y-98234400D02*
X116584600Y-93004000D01*
X116610000Y-93004000D02*
X124460000Y-93014000D01*
%TO.C,IO36*%
X116610000Y-101640000D02*
X124460000Y-101650000D01*
X116610000Y-106870400D02*
X116584600Y-101640000D01*
X116610000Y-106870400D02*
X124460000Y-106880000D01*
X124460000Y-106880000D02*
X124460000Y-101649600D01*
X116610000Y-102640000D02*
X124460000Y-102660000D01*
%TO.C,IO39*%
X116610000Y-111530000D02*
X124460000Y-111550000D01*
X124460000Y-115770000D02*
X124460000Y-110539600D01*
X116610000Y-115760400D02*
X124460000Y-115770000D01*
X116610000Y-115760400D02*
X116584600Y-110530000D01*
X116610000Y-110530000D02*
X124460000Y-110540000D01*
%TO.C,G V SCL SDA*%
X116610000Y-51094000D02*
X127290000Y-51104000D01*
X116610000Y-56324400D02*
X116584600Y-51094000D01*
X116610000Y-56324400D02*
X127290000Y-56334000D01*
X127290000Y-56334000D02*
X127290000Y-51103600D01*
X116610000Y-52094000D02*
X127280000Y-52114000D01*
%TO.C,Rx Tx*%
X145058000Y-93750000D02*
X155728000Y-93770000D01*
X155738000Y-97990000D02*
X155738000Y-92759600D01*
X145058000Y-97980400D02*
X155738000Y-97990000D01*
X145058000Y-97980400D02*
X145032600Y-92750000D01*
X145058000Y-92750000D02*
X155738000Y-92760000D01*
%TO.C,IO02*%
D10*
X119173809Y-66294380D02*
X119173809Y-65294380D01*
X119840476Y-65294380D02*
X120030952Y-65294380D01*
X120126190Y-65342000D01*
X120221428Y-65437238D01*
X120269047Y-65627714D01*
X120269047Y-65961047D01*
X120221428Y-66151523D01*
X120126190Y-66246761D01*
X120030952Y-66294380D01*
X119840476Y-66294380D01*
X119745238Y-66246761D01*
X119650000Y-66151523D01*
X119602380Y-65961047D01*
X119602380Y-65627714D01*
X119650000Y-65437238D01*
X119745238Y-65342000D01*
X119840476Y-65294380D01*
X120888095Y-65294380D02*
X120983333Y-65294380D01*
X121078571Y-65342000D01*
X121126190Y-65389619D01*
X121173809Y-65484857D01*
X121221428Y-65675333D01*
X121221428Y-65913428D01*
X121173809Y-66103904D01*
X121126190Y-66199142D01*
X121078571Y-66246761D01*
X120983333Y-66294380D01*
X120888095Y-66294380D01*
X120792857Y-66246761D01*
X120745238Y-66199142D01*
X120697619Y-66103904D01*
X120650000Y-65913428D01*
X120650000Y-65675333D01*
X120697619Y-65484857D01*
X120745238Y-65389619D01*
X120792857Y-65342000D01*
X120888095Y-65294380D01*
X121602380Y-65389619D02*
X121650000Y-65342000D01*
X121745238Y-65294380D01*
X121983333Y-65294380D01*
X122078571Y-65342000D01*
X122126190Y-65389619D01*
X122173809Y-65484857D01*
X122173809Y-65580095D01*
X122126190Y-65722952D01*
X121554761Y-66294380D01*
X122173809Y-66294380D01*
%TO.C,IO26*%
X147621809Y-83312380D02*
X147621809Y-82312380D01*
X148288476Y-82312380D02*
X148478952Y-82312380D01*
X148574190Y-82360000D01*
X148669428Y-82455238D01*
X148717047Y-82645714D01*
X148717047Y-82979047D01*
X148669428Y-83169523D01*
X148574190Y-83264761D01*
X148478952Y-83312380D01*
X148288476Y-83312380D01*
X148193238Y-83264761D01*
X148098000Y-83169523D01*
X148050380Y-82979047D01*
X148050380Y-82645714D01*
X148098000Y-82455238D01*
X148193238Y-82360000D01*
X148288476Y-82312380D01*
X149098000Y-82407619D02*
X149145619Y-82360000D01*
X149240857Y-82312380D01*
X149478952Y-82312380D01*
X149574190Y-82360000D01*
X149621809Y-82407619D01*
X149669428Y-82502857D01*
X149669428Y-82598095D01*
X149621809Y-82740952D01*
X149050380Y-83312380D01*
X149669428Y-83312380D01*
X150526571Y-82312380D02*
X150336095Y-82312380D01*
X150240857Y-82360000D01*
X150193238Y-82407619D01*
X150098000Y-82550476D01*
X150050380Y-82740952D01*
X150050380Y-83121904D01*
X150098000Y-83217142D01*
X150145619Y-83264761D01*
X150240857Y-83312380D01*
X150431333Y-83312380D01*
X150526571Y-83264761D01*
X150574190Y-83217142D01*
X150621809Y-83121904D01*
X150621809Y-82883809D01*
X150574190Y-82788571D01*
X150526571Y-82740952D01*
X150431333Y-82693333D01*
X150240857Y-82693333D01*
X150145619Y-82740952D01*
X150098000Y-82788571D01*
X150050380Y-82883809D01*
%TO.C,IO25*%
X147621809Y-74930380D02*
X147621809Y-73930380D01*
X148288476Y-73930380D02*
X148478952Y-73930380D01*
X148574190Y-73978000D01*
X148669428Y-74073238D01*
X148717047Y-74263714D01*
X148717047Y-74597047D01*
X148669428Y-74787523D01*
X148574190Y-74882761D01*
X148478952Y-74930380D01*
X148288476Y-74930380D01*
X148193238Y-74882761D01*
X148098000Y-74787523D01*
X148050380Y-74597047D01*
X148050380Y-74263714D01*
X148098000Y-74073238D01*
X148193238Y-73978000D01*
X148288476Y-73930380D01*
X149098000Y-74025619D02*
X149145619Y-73978000D01*
X149240857Y-73930380D01*
X149478952Y-73930380D01*
X149574190Y-73978000D01*
X149621809Y-74025619D01*
X149669428Y-74120857D01*
X149669428Y-74216095D01*
X149621809Y-74358952D01*
X149050380Y-74930380D01*
X149669428Y-74930380D01*
X150574190Y-73930380D02*
X150098000Y-73930380D01*
X150050380Y-74406571D01*
X150098000Y-74358952D01*
X150193238Y-74311333D01*
X150431333Y-74311333D01*
X150526571Y-74358952D01*
X150574190Y-74406571D01*
X150621809Y-74501809D01*
X150621809Y-74739904D01*
X150574190Y-74835142D01*
X150526571Y-74882761D01*
X150431333Y-74930380D01*
X150193238Y-74930380D01*
X150098000Y-74882761D01*
X150050380Y-74835142D01*
%TO.C,IO17*%
X147621809Y-66548380D02*
X147621809Y-65548380D01*
X148288476Y-65548380D02*
X148478952Y-65548380D01*
X148574190Y-65596000D01*
X148669428Y-65691238D01*
X148717047Y-65881714D01*
X148717047Y-66215047D01*
X148669428Y-66405523D01*
X148574190Y-66500761D01*
X148478952Y-66548380D01*
X148288476Y-66548380D01*
X148193238Y-66500761D01*
X148098000Y-66405523D01*
X148050380Y-66215047D01*
X148050380Y-65881714D01*
X148098000Y-65691238D01*
X148193238Y-65596000D01*
X148288476Y-65548380D01*
X149669428Y-66548380D02*
X149098000Y-66548380D01*
X149383714Y-66548380D02*
X149383714Y-65548380D01*
X149288476Y-65691238D01*
X149193238Y-65786476D01*
X149098000Y-65834095D01*
X150002761Y-65548380D02*
X150669428Y-65548380D01*
X150240857Y-66548380D01*
%TO.C,IO16*%
X147621809Y-58420380D02*
X147621809Y-57420380D01*
X148288476Y-57420380D02*
X148478952Y-57420380D01*
X148574190Y-57468000D01*
X148669428Y-57563238D01*
X148717047Y-57753714D01*
X148717047Y-58087047D01*
X148669428Y-58277523D01*
X148574190Y-58372761D01*
X148478952Y-58420380D01*
X148288476Y-58420380D01*
X148193238Y-58372761D01*
X148098000Y-58277523D01*
X148050380Y-58087047D01*
X148050380Y-57753714D01*
X148098000Y-57563238D01*
X148193238Y-57468000D01*
X148288476Y-57420380D01*
X149669428Y-58420380D02*
X149098000Y-58420380D01*
X149383714Y-58420380D02*
X149383714Y-57420380D01*
X149288476Y-57563238D01*
X149193238Y-57658476D01*
X149098000Y-57706095D01*
X150526571Y-57420380D02*
X150336095Y-57420380D01*
X150240857Y-57468000D01*
X150193238Y-57515619D01*
X150098000Y-57658476D01*
X150050380Y-57848952D01*
X150050380Y-58229904D01*
X150098000Y-58325142D01*
X150145619Y-58372761D01*
X150240857Y-58420380D01*
X150431333Y-58420380D01*
X150526571Y-58372761D01*
X150574190Y-58325142D01*
X150621809Y-58229904D01*
X150621809Y-57991809D01*
X150574190Y-57896571D01*
X150526571Y-57848952D01*
X150431333Y-57801333D01*
X150240857Y-57801333D01*
X150145619Y-57848952D01*
X150098000Y-57896571D01*
X150050380Y-57991809D01*
%TO.C,IO27*%
X147621809Y-50546380D02*
X147621809Y-49546380D01*
X148288476Y-49546380D02*
X148478952Y-49546380D01*
X148574190Y-49594000D01*
X148669428Y-49689238D01*
X148717047Y-49879714D01*
X148717047Y-50213047D01*
X148669428Y-50403523D01*
X148574190Y-50498761D01*
X148478952Y-50546380D01*
X148288476Y-50546380D01*
X148193238Y-50498761D01*
X148098000Y-50403523D01*
X148050380Y-50213047D01*
X148050380Y-49879714D01*
X148098000Y-49689238D01*
X148193238Y-49594000D01*
X148288476Y-49546380D01*
X149098000Y-49641619D02*
X149145619Y-49594000D01*
X149240857Y-49546380D01*
X149478952Y-49546380D01*
X149574190Y-49594000D01*
X149621809Y-49641619D01*
X149669428Y-49736857D01*
X149669428Y-49832095D01*
X149621809Y-49974952D01*
X149050380Y-50546380D01*
X149669428Y-50546380D01*
X150002761Y-49546380D02*
X150669428Y-49546380D01*
X150240857Y-50546380D01*
%TO.C,IO14*%
X134159809Y-66548380D02*
X134159809Y-65548380D01*
X134826476Y-65548380D02*
X135016952Y-65548380D01*
X135112190Y-65596000D01*
X135207428Y-65691238D01*
X135255047Y-65881714D01*
X135255047Y-66215047D01*
X135207428Y-66405523D01*
X135112190Y-66500761D01*
X135016952Y-66548380D01*
X134826476Y-66548380D01*
X134731238Y-66500761D01*
X134636000Y-66405523D01*
X134588380Y-66215047D01*
X134588380Y-65881714D01*
X134636000Y-65691238D01*
X134731238Y-65596000D01*
X134826476Y-65548380D01*
X136207428Y-66548380D02*
X135636000Y-66548380D01*
X135921714Y-66548380D02*
X135921714Y-65548380D01*
X135826476Y-65691238D01*
X135731238Y-65786476D01*
X135636000Y-65834095D01*
X137064571Y-65881714D02*
X137064571Y-66548380D01*
X136826476Y-65500761D02*
X136588380Y-66215047D01*
X137207428Y-66215047D01*
%TO.C,IO12*%
X134159809Y-58420380D02*
X134159809Y-57420380D01*
X134826476Y-57420380D02*
X135016952Y-57420380D01*
X135112190Y-57468000D01*
X135207428Y-57563238D01*
X135255047Y-57753714D01*
X135255047Y-58087047D01*
X135207428Y-58277523D01*
X135112190Y-58372761D01*
X135016952Y-58420380D01*
X134826476Y-58420380D01*
X134731238Y-58372761D01*
X134636000Y-58277523D01*
X134588380Y-58087047D01*
X134588380Y-57753714D01*
X134636000Y-57563238D01*
X134731238Y-57468000D01*
X134826476Y-57420380D01*
X136207428Y-58420380D02*
X135636000Y-58420380D01*
X135921714Y-58420380D02*
X135921714Y-57420380D01*
X135826476Y-57563238D01*
X135731238Y-57658476D01*
X135636000Y-57706095D01*
X136588380Y-57515619D02*
X136636000Y-57468000D01*
X136731238Y-57420380D01*
X136969333Y-57420380D01*
X137064571Y-57468000D01*
X137112190Y-57515619D01*
X137159809Y-57610857D01*
X137159809Y-57706095D01*
X137112190Y-57848952D01*
X136540761Y-58420380D01*
X137159809Y-58420380D01*
%TO.C,IO13*%
X134413809Y-50490380D02*
X134413809Y-49490380D01*
X135080476Y-49490380D02*
X135270952Y-49490380D01*
X135366190Y-49538000D01*
X135461428Y-49633238D01*
X135509047Y-49823714D01*
X135509047Y-50157047D01*
X135461428Y-50347523D01*
X135366190Y-50442761D01*
X135270952Y-50490380D01*
X135080476Y-50490380D01*
X134985238Y-50442761D01*
X134890000Y-50347523D01*
X134842380Y-50157047D01*
X134842380Y-49823714D01*
X134890000Y-49633238D01*
X134985238Y-49538000D01*
X135080476Y-49490380D01*
X136461428Y-50490380D02*
X135890000Y-50490380D01*
X136175714Y-50490380D02*
X136175714Y-49490380D01*
X136080476Y-49633238D01*
X135985238Y-49728476D01*
X135890000Y-49776095D01*
X136794761Y-49490380D02*
X137413809Y-49490380D01*
X137080476Y-49871333D01*
X137223333Y-49871333D01*
X137318571Y-49918952D01*
X137366190Y-49966571D01*
X137413809Y-50061809D01*
X137413809Y-50299904D01*
X137366190Y-50395142D01*
X137318571Y-50442761D01*
X137223333Y-50490380D01*
X136937619Y-50490380D01*
X136842380Y-50442761D01*
X136794761Y-50395142D01*
%TO.C,IO05*%
X134159809Y-101346380D02*
X134159809Y-100346380D01*
X134826476Y-100346380D02*
X135016952Y-100346380D01*
X135112190Y-100394000D01*
X135207428Y-100489238D01*
X135255047Y-100679714D01*
X135255047Y-101013047D01*
X135207428Y-101203523D01*
X135112190Y-101298761D01*
X135016952Y-101346380D01*
X134826476Y-101346380D01*
X134731238Y-101298761D01*
X134636000Y-101203523D01*
X134588380Y-101013047D01*
X134588380Y-100679714D01*
X134636000Y-100489238D01*
X134731238Y-100394000D01*
X134826476Y-100346380D01*
X135874095Y-100346380D02*
X135969333Y-100346380D01*
X136064571Y-100394000D01*
X136112190Y-100441619D01*
X136159809Y-100536857D01*
X136207428Y-100727333D01*
X136207428Y-100965428D01*
X136159809Y-101155904D01*
X136112190Y-101251142D01*
X136064571Y-101298761D01*
X135969333Y-101346380D01*
X135874095Y-101346380D01*
X135778857Y-101298761D01*
X135731238Y-101251142D01*
X135683619Y-101155904D01*
X135636000Y-100965428D01*
X135636000Y-100727333D01*
X135683619Y-100536857D01*
X135731238Y-100441619D01*
X135778857Y-100394000D01*
X135874095Y-100346380D01*
X137112190Y-100346380D02*
X136636000Y-100346380D01*
X136588380Y-100822571D01*
X136636000Y-100774952D01*
X136731238Y-100727333D01*
X136969333Y-100727333D01*
X137064571Y-100774952D01*
X137112190Y-100822571D01*
X137159809Y-100917809D01*
X137159809Y-101155904D01*
X137112190Y-101251142D01*
X137064571Y-101298761D01*
X136969333Y-101346380D01*
X136731238Y-101346380D01*
X136636000Y-101298761D01*
X136588380Y-101251142D01*
%TO.C,IO23*%
X134159809Y-92202380D02*
X134159809Y-91202380D01*
X134826476Y-91202380D02*
X135016952Y-91202380D01*
X135112190Y-91250000D01*
X135207428Y-91345238D01*
X135255047Y-91535714D01*
X135255047Y-91869047D01*
X135207428Y-92059523D01*
X135112190Y-92154761D01*
X135016952Y-92202380D01*
X134826476Y-92202380D01*
X134731238Y-92154761D01*
X134636000Y-92059523D01*
X134588380Y-91869047D01*
X134588380Y-91535714D01*
X134636000Y-91345238D01*
X134731238Y-91250000D01*
X134826476Y-91202380D01*
X135636000Y-91297619D02*
X135683619Y-91250000D01*
X135778857Y-91202380D01*
X136016952Y-91202380D01*
X136112190Y-91250000D01*
X136159809Y-91297619D01*
X136207428Y-91392857D01*
X136207428Y-91488095D01*
X136159809Y-91630952D01*
X135588380Y-92202380D01*
X136207428Y-92202380D01*
X136540761Y-91202380D02*
X137159809Y-91202380D01*
X136826476Y-91583333D01*
X136969333Y-91583333D01*
X137064571Y-91630952D01*
X137112190Y-91678571D01*
X137159809Y-91773809D01*
X137159809Y-92011904D01*
X137112190Y-92107142D01*
X137064571Y-92154761D01*
X136969333Y-92202380D01*
X136683619Y-92202380D01*
X136588380Y-92154761D01*
X136540761Y-92107142D01*
%TO.C,IO19*%
X134159809Y-83312380D02*
X134159809Y-82312380D01*
X134826476Y-82312380D02*
X135016952Y-82312380D01*
X135112190Y-82360000D01*
X135207428Y-82455238D01*
X135255047Y-82645714D01*
X135255047Y-82979047D01*
X135207428Y-83169523D01*
X135112190Y-83264761D01*
X135016952Y-83312380D01*
X134826476Y-83312380D01*
X134731238Y-83264761D01*
X134636000Y-83169523D01*
X134588380Y-82979047D01*
X134588380Y-82645714D01*
X134636000Y-82455238D01*
X134731238Y-82360000D01*
X134826476Y-82312380D01*
X136207428Y-83312380D02*
X135636000Y-83312380D01*
X135921714Y-83312380D02*
X135921714Y-82312380D01*
X135826476Y-82455238D01*
X135731238Y-82550476D01*
X135636000Y-82598095D01*
X136683619Y-83312380D02*
X136874095Y-83312380D01*
X136969333Y-83264761D01*
X137016952Y-83217142D01*
X137112190Y-83074285D01*
X137159809Y-82883809D01*
X137159809Y-82502857D01*
X137112190Y-82407619D01*
X137064571Y-82360000D01*
X136969333Y-82312380D01*
X136778857Y-82312380D01*
X136683619Y-82360000D01*
X136636000Y-82407619D01*
X136588380Y-82502857D01*
X136588380Y-82740952D01*
X136636000Y-82836190D01*
X136683619Y-82883809D01*
X136778857Y-82931428D01*
X136969333Y-82931428D01*
X137064571Y-82883809D01*
X137112190Y-82836190D01*
X137159809Y-82740952D01*
%TO.C,IO18*%
X134159809Y-74676380D02*
X134159809Y-73676380D01*
X134826476Y-73676380D02*
X135016952Y-73676380D01*
X135112190Y-73724000D01*
X135207428Y-73819238D01*
X135255047Y-74009714D01*
X135255047Y-74343047D01*
X135207428Y-74533523D01*
X135112190Y-74628761D01*
X135016952Y-74676380D01*
X134826476Y-74676380D01*
X134731238Y-74628761D01*
X134636000Y-74533523D01*
X134588380Y-74343047D01*
X134588380Y-74009714D01*
X134636000Y-73819238D01*
X134731238Y-73724000D01*
X134826476Y-73676380D01*
X136207428Y-74676380D02*
X135636000Y-74676380D01*
X135921714Y-74676380D02*
X135921714Y-73676380D01*
X135826476Y-73819238D01*
X135731238Y-73914476D01*
X135636000Y-73962095D01*
X136778857Y-74104952D02*
X136683619Y-74057333D01*
X136636000Y-74009714D01*
X136588380Y-73914476D01*
X136588380Y-73866857D01*
X136636000Y-73771619D01*
X136683619Y-73724000D01*
X136778857Y-73676380D01*
X136969333Y-73676380D01*
X137064571Y-73724000D01*
X137112190Y-73771619D01*
X137159809Y-73866857D01*
X137159809Y-73914476D01*
X137112190Y-74009714D01*
X137064571Y-74057333D01*
X136969333Y-74104952D01*
X136778857Y-74104952D01*
X136683619Y-74152571D01*
X136636000Y-74200190D01*
X136588380Y-74295428D01*
X136588380Y-74485904D01*
X136636000Y-74581142D01*
X136683619Y-74628761D01*
X136778857Y-74676380D01*
X136969333Y-74676380D01*
X137064571Y-74628761D01*
X137112190Y-74581142D01*
X137159809Y-74485904D01*
X137159809Y-74295428D01*
X137112190Y-74200190D01*
X137064571Y-74152571D01*
X136969333Y-74104952D01*
%TO.C,GND*%
X149336095Y-109030000D02*
X149240857Y-108982380D01*
X149098000Y-108982380D01*
X148955142Y-109030000D01*
X148859904Y-109125238D01*
X148812285Y-109220476D01*
X148764666Y-109410952D01*
X148764666Y-109553809D01*
X148812285Y-109744285D01*
X148859904Y-109839523D01*
X148955142Y-109934761D01*
X149098000Y-109982380D01*
X149193238Y-109982380D01*
X149336095Y-109934761D01*
X149383714Y-109887142D01*
X149383714Y-109553809D01*
X149193238Y-109553809D01*
X149812285Y-109982380D02*
X149812285Y-108982380D01*
X150383714Y-109982380D01*
X150383714Y-108982380D01*
X150859904Y-109982380D02*
X150859904Y-108982380D01*
X151098000Y-108982380D01*
X151240857Y-109030000D01*
X151336095Y-109125238D01*
X151383714Y-109220476D01*
X151431333Y-109410952D01*
X151431333Y-109553809D01*
X151383714Y-109744285D01*
X151336095Y-109839523D01*
X151240857Y-109934761D01*
X151098000Y-109982380D01*
X150859904Y-109982380D01*
%TO.C,5V*%
X136191523Y-108982380D02*
X135715333Y-108982380D01*
X135667714Y-109458571D01*
X135715333Y-109410952D01*
X135810571Y-109363333D01*
X136048666Y-109363333D01*
X136143904Y-109410952D01*
X136191523Y-109458571D01*
X136239142Y-109553809D01*
X136239142Y-109791904D01*
X136191523Y-109887142D01*
X136143904Y-109934761D01*
X136048666Y-109982380D01*
X135810571Y-109982380D01*
X135715333Y-109934761D01*
X135667714Y-109887142D01*
X136524857Y-108982380D02*
X136858190Y-109982380D01*
X137191523Y-108982380D01*
%TO.C,3.3V*%
X148621809Y-100346380D02*
X149240857Y-100346380D01*
X148907523Y-100727333D01*
X149050380Y-100727333D01*
X149145619Y-100774952D01*
X149193238Y-100822571D01*
X149240857Y-100917809D01*
X149240857Y-101155904D01*
X149193238Y-101251142D01*
X149145619Y-101298761D01*
X149050380Y-101346380D01*
X148764666Y-101346380D01*
X148669428Y-101298761D01*
X148621809Y-101251142D01*
X149669428Y-101251142D02*
X149717047Y-101298761D01*
X149669428Y-101346380D01*
X149621809Y-101298761D01*
X149669428Y-101251142D01*
X149669428Y-101346380D01*
X150050380Y-100346380D02*
X150669428Y-100346380D01*
X150336095Y-100727333D01*
X150478952Y-100727333D01*
X150574190Y-100774952D01*
X150621809Y-100822571D01*
X150669428Y-100917809D01*
X150669428Y-101155904D01*
X150621809Y-101251142D01*
X150574190Y-101298761D01*
X150478952Y-101346380D01*
X150193238Y-101346380D01*
X150098000Y-101298761D01*
X150050380Y-101251142D01*
X150955142Y-100346380D02*
X151288476Y-101346380D01*
X151621809Y-100346380D01*
%TO.C,G RST V*%
X118364285Y-57722000D02*
X118269047Y-57674380D01*
X118126190Y-57674380D01*
X117983333Y-57722000D01*
X117888095Y-57817238D01*
X117840476Y-57912476D01*
X117792857Y-58102952D01*
X117792857Y-58245809D01*
X117840476Y-58436285D01*
X117888095Y-58531523D01*
X117983333Y-58626761D01*
X118126190Y-58674380D01*
X118221428Y-58674380D01*
X118364285Y-58626761D01*
X118411904Y-58579142D01*
X118411904Y-58245809D01*
X118221428Y-58245809D01*
X120173809Y-58674380D02*
X119840476Y-58198190D01*
X119602380Y-58674380D02*
X119602380Y-57674380D01*
X119983333Y-57674380D01*
X120078571Y-57722000D01*
X120126190Y-57769619D01*
X120173809Y-57864857D01*
X120173809Y-58007714D01*
X120126190Y-58102952D01*
X120078571Y-58150571D01*
X119983333Y-58198190D01*
X119602380Y-58198190D01*
X120554761Y-58626761D02*
X120697619Y-58674380D01*
X120935714Y-58674380D01*
X121030952Y-58626761D01*
X121078571Y-58579142D01*
X121126190Y-58483904D01*
X121126190Y-58388666D01*
X121078571Y-58293428D01*
X121030952Y-58245809D01*
X120935714Y-58198190D01*
X120745238Y-58150571D01*
X120650000Y-58102952D01*
X120602380Y-58055333D01*
X120554761Y-57960095D01*
X120554761Y-57864857D01*
X120602380Y-57769619D01*
X120650000Y-57722000D01*
X120745238Y-57674380D01*
X120983333Y-57674380D01*
X121126190Y-57722000D01*
X121411904Y-57674380D02*
X121983333Y-57674380D01*
X121697619Y-58674380D02*
X121697619Y-57674380D01*
X122935714Y-57674380D02*
X123269047Y-58674380D01*
X123602380Y-57674380D01*
%TO.C,IO04*%
X119173809Y-74676380D02*
X119173809Y-73676380D01*
X119840476Y-73676380D02*
X120030952Y-73676380D01*
X120126190Y-73724000D01*
X120221428Y-73819238D01*
X120269047Y-74009714D01*
X120269047Y-74343047D01*
X120221428Y-74533523D01*
X120126190Y-74628761D01*
X120030952Y-74676380D01*
X119840476Y-74676380D01*
X119745238Y-74628761D01*
X119650000Y-74533523D01*
X119602380Y-74343047D01*
X119602380Y-74009714D01*
X119650000Y-73819238D01*
X119745238Y-73724000D01*
X119840476Y-73676380D01*
X120888095Y-73676380D02*
X120983333Y-73676380D01*
X121078571Y-73724000D01*
X121126190Y-73771619D01*
X121173809Y-73866857D01*
X121221428Y-74057333D01*
X121221428Y-74295428D01*
X121173809Y-74485904D01*
X121126190Y-74581142D01*
X121078571Y-74628761D01*
X120983333Y-74676380D01*
X120888095Y-74676380D01*
X120792857Y-74628761D01*
X120745238Y-74581142D01*
X120697619Y-74485904D01*
X120650000Y-74295428D01*
X120650000Y-74057333D01*
X120697619Y-73866857D01*
X120745238Y-73771619D01*
X120792857Y-73724000D01*
X120888095Y-73676380D01*
X122078571Y-74009714D02*
X122078571Y-74676380D01*
X121840476Y-73628761D02*
X121602380Y-74343047D01*
X122221428Y-74343047D01*
%TO.C,IO35*%
X119173809Y-83312380D02*
X119173809Y-82312380D01*
X119840476Y-82312380D02*
X120030952Y-82312380D01*
X120126190Y-82360000D01*
X120221428Y-82455238D01*
X120269047Y-82645714D01*
X120269047Y-82979047D01*
X120221428Y-83169523D01*
X120126190Y-83264761D01*
X120030952Y-83312380D01*
X119840476Y-83312380D01*
X119745238Y-83264761D01*
X119650000Y-83169523D01*
X119602380Y-82979047D01*
X119602380Y-82645714D01*
X119650000Y-82455238D01*
X119745238Y-82360000D01*
X119840476Y-82312380D01*
X120602380Y-82312380D02*
X121221428Y-82312380D01*
X120888095Y-82693333D01*
X121030952Y-82693333D01*
X121126190Y-82740952D01*
X121173809Y-82788571D01*
X121221428Y-82883809D01*
X121221428Y-83121904D01*
X121173809Y-83217142D01*
X121126190Y-83264761D01*
X121030952Y-83312380D01*
X120745238Y-83312380D01*
X120650000Y-83264761D01*
X120602380Y-83217142D01*
X122126190Y-82312380D02*
X121650000Y-82312380D01*
X121602380Y-82788571D01*
X121650000Y-82740952D01*
X121745238Y-82693333D01*
X121983333Y-82693333D01*
X122078571Y-82740952D01*
X122126190Y-82788571D01*
X122173809Y-82883809D01*
X122173809Y-83121904D01*
X122126190Y-83217142D01*
X122078571Y-83264761D01*
X121983333Y-83312380D01*
X121745238Y-83312380D01*
X121650000Y-83264761D01*
X121602380Y-83217142D01*
%TO.C,IO34*%
X119173809Y-92456380D02*
X119173809Y-91456380D01*
X119840476Y-91456380D02*
X120030952Y-91456380D01*
X120126190Y-91504000D01*
X120221428Y-91599238D01*
X120269047Y-91789714D01*
X120269047Y-92123047D01*
X120221428Y-92313523D01*
X120126190Y-92408761D01*
X120030952Y-92456380D01*
X119840476Y-92456380D01*
X119745238Y-92408761D01*
X119650000Y-92313523D01*
X119602380Y-92123047D01*
X119602380Y-91789714D01*
X119650000Y-91599238D01*
X119745238Y-91504000D01*
X119840476Y-91456380D01*
X120602380Y-91456380D02*
X121221428Y-91456380D01*
X120888095Y-91837333D01*
X121030952Y-91837333D01*
X121126190Y-91884952D01*
X121173809Y-91932571D01*
X121221428Y-92027809D01*
X121221428Y-92265904D01*
X121173809Y-92361142D01*
X121126190Y-92408761D01*
X121030952Y-92456380D01*
X120745238Y-92456380D01*
X120650000Y-92408761D01*
X120602380Y-92361142D01*
X122078571Y-91789714D02*
X122078571Y-92456380D01*
X121840476Y-91408761D02*
X121602380Y-92123047D01*
X122221428Y-92123047D01*
%TO.C,IO36*%
X119173809Y-101092380D02*
X119173809Y-100092380D01*
X119840476Y-100092380D02*
X120030952Y-100092380D01*
X120126190Y-100140000D01*
X120221428Y-100235238D01*
X120269047Y-100425714D01*
X120269047Y-100759047D01*
X120221428Y-100949523D01*
X120126190Y-101044761D01*
X120030952Y-101092380D01*
X119840476Y-101092380D01*
X119745238Y-101044761D01*
X119650000Y-100949523D01*
X119602380Y-100759047D01*
X119602380Y-100425714D01*
X119650000Y-100235238D01*
X119745238Y-100140000D01*
X119840476Y-100092380D01*
X120602380Y-100092380D02*
X121221428Y-100092380D01*
X120888095Y-100473333D01*
X121030952Y-100473333D01*
X121126190Y-100520952D01*
X121173809Y-100568571D01*
X121221428Y-100663809D01*
X121221428Y-100901904D01*
X121173809Y-100997142D01*
X121126190Y-101044761D01*
X121030952Y-101092380D01*
X120745238Y-101092380D01*
X120650000Y-101044761D01*
X120602380Y-100997142D01*
X122078571Y-100092380D02*
X121888095Y-100092380D01*
X121792857Y-100140000D01*
X121745238Y-100187619D01*
X121650000Y-100330476D01*
X121602380Y-100520952D01*
X121602380Y-100901904D01*
X121650000Y-100997142D01*
X121697619Y-101044761D01*
X121792857Y-101092380D01*
X121983333Y-101092380D01*
X122078571Y-101044761D01*
X122126190Y-100997142D01*
X122173809Y-100901904D01*
X122173809Y-100663809D01*
X122126190Y-100568571D01*
X122078571Y-100520952D01*
X121983333Y-100473333D01*
X121792857Y-100473333D01*
X121697619Y-100520952D01*
X121650000Y-100568571D01*
X121602380Y-100663809D01*
%TO.C,IO39*%
X119173809Y-109982380D02*
X119173809Y-108982380D01*
X119840476Y-108982380D02*
X120030952Y-108982380D01*
X120126190Y-109030000D01*
X120221428Y-109125238D01*
X120269047Y-109315714D01*
X120269047Y-109649047D01*
X120221428Y-109839523D01*
X120126190Y-109934761D01*
X120030952Y-109982380D01*
X119840476Y-109982380D01*
X119745238Y-109934761D01*
X119650000Y-109839523D01*
X119602380Y-109649047D01*
X119602380Y-109315714D01*
X119650000Y-109125238D01*
X119745238Y-109030000D01*
X119840476Y-108982380D01*
X120602380Y-108982380D02*
X121221428Y-108982380D01*
X120888095Y-109363333D01*
X121030952Y-109363333D01*
X121126190Y-109410952D01*
X121173809Y-109458571D01*
X121221428Y-109553809D01*
X121221428Y-109791904D01*
X121173809Y-109887142D01*
X121126190Y-109934761D01*
X121030952Y-109982380D01*
X120745238Y-109982380D01*
X120650000Y-109934761D01*
X120602380Y-109887142D01*
X121697619Y-109982380D02*
X121888095Y-109982380D01*
X121983333Y-109934761D01*
X122030952Y-109887142D01*
X122126190Y-109744285D01*
X122173809Y-109553809D01*
X122173809Y-109172857D01*
X122126190Y-109077619D01*
X122078571Y-109030000D01*
X121983333Y-108982380D01*
X121792857Y-108982380D01*
X121697619Y-109030000D01*
X121650000Y-109077619D01*
X121602380Y-109172857D01*
X121602380Y-109410952D01*
X121650000Y-109506190D01*
X121697619Y-109553809D01*
X121792857Y-109601428D01*
X121983333Y-109601428D01*
X122078571Y-109553809D01*
X122126190Y-109506190D01*
X122173809Y-109410952D01*
%TO.C,G V SCL SDA*%
X117554761Y-48670000D02*
X117459523Y-48622380D01*
X117316666Y-48622380D01*
X117173809Y-48670000D01*
X117078571Y-48765238D01*
X117030952Y-48860476D01*
X116983333Y-49050952D01*
X116983333Y-49193809D01*
X117030952Y-49384285D01*
X117078571Y-49479523D01*
X117173809Y-49574761D01*
X117316666Y-49622380D01*
X117411904Y-49622380D01*
X117554761Y-49574761D01*
X117602380Y-49527142D01*
X117602380Y-49193809D01*
X117411904Y-49193809D01*
X118650000Y-48622380D02*
X118983333Y-49622380D01*
X119316666Y-48622380D01*
X120364285Y-49574761D02*
X120507142Y-49622380D01*
X120745238Y-49622380D01*
X120840476Y-49574761D01*
X120888095Y-49527142D01*
X120935714Y-49431904D01*
X120935714Y-49336666D01*
X120888095Y-49241428D01*
X120840476Y-49193809D01*
X120745238Y-49146190D01*
X120554761Y-49098571D01*
X120459523Y-49050952D01*
X120411904Y-49003333D01*
X120364285Y-48908095D01*
X120364285Y-48812857D01*
X120411904Y-48717619D01*
X120459523Y-48670000D01*
X120554761Y-48622380D01*
X120792857Y-48622380D01*
X120935714Y-48670000D01*
X121935714Y-49527142D02*
X121888095Y-49574761D01*
X121745238Y-49622380D01*
X121650000Y-49622380D01*
X121507142Y-49574761D01*
X121411904Y-49479523D01*
X121364285Y-49384285D01*
X121316666Y-49193809D01*
X121316666Y-49050952D01*
X121364285Y-48860476D01*
X121411904Y-48765238D01*
X121507142Y-48670000D01*
X121650000Y-48622380D01*
X121745238Y-48622380D01*
X121888095Y-48670000D01*
X121935714Y-48717619D01*
X122840476Y-49622380D02*
X122364285Y-49622380D01*
X122364285Y-48622380D01*
X123888095Y-49574761D02*
X124030952Y-49622380D01*
X124269047Y-49622380D01*
X124364285Y-49574761D01*
X124411904Y-49527142D01*
X124459523Y-49431904D01*
X124459523Y-49336666D01*
X124411904Y-49241428D01*
X124364285Y-49193809D01*
X124269047Y-49146190D01*
X124078571Y-49098571D01*
X123983333Y-49050952D01*
X123935714Y-49003333D01*
X123888095Y-48908095D01*
X123888095Y-48812857D01*
X123935714Y-48717619D01*
X123983333Y-48670000D01*
X124078571Y-48622380D01*
X124316666Y-48622380D01*
X124459523Y-48670000D01*
X124888095Y-49622380D02*
X124888095Y-48622380D01*
X125126190Y-48622380D01*
X125269047Y-48670000D01*
X125364285Y-48765238D01*
X125411904Y-48860476D01*
X125459523Y-49050952D01*
X125459523Y-49193809D01*
X125411904Y-49384285D01*
X125364285Y-49479523D01*
X125269047Y-49574761D01*
X125126190Y-49622380D01*
X124888095Y-49622380D01*
X125840476Y-49336666D02*
X126316666Y-49336666D01*
X125745238Y-49622380D02*
X126078571Y-48622380D01*
X126411904Y-49622380D01*
%TO.C,Rx Tx*%
X148836095Y-92202380D02*
X148502761Y-91726190D01*
X148264666Y-92202380D02*
X148264666Y-91202380D01*
X148645619Y-91202380D01*
X148740857Y-91250000D01*
X148788476Y-91297619D01*
X148836095Y-91392857D01*
X148836095Y-91535714D01*
X148788476Y-91630952D01*
X148740857Y-91678571D01*
X148645619Y-91726190D01*
X148264666Y-91726190D01*
X149169428Y-92202380D02*
X149693238Y-91535714D01*
X149169428Y-91535714D02*
X149693238Y-92202380D01*
X150693238Y-91202380D02*
X151264666Y-91202380D01*
X150978952Y-92202380D02*
X150978952Y-91202380D01*
X151502761Y-92202380D02*
X152026571Y-91535714D01*
X151502761Y-91535714D02*
X152026571Y-92202380D01*
%TD*%
M02*
