M48
; DRILL file {KiCad (5.1.9)-1} date 11/09/22 15:04:01
; FORMAT={3:3/ absolute / metric / suppress leading zeros}
; #@! TF.CreationDate,2022-11-09T15:04:01+01:00
; #@! TF.GenerationSoftware,Kicad,Pcbnew,(5.1.9)-1
FMAT,2
METRIC,TZ
T1C0.400
T2C1.000
%
G90
G05
T1
X123190Y-80518
X129032Y-54102
X142240Y-82296
X143002Y-65278
X143002Y-73152
X145039Y-56383
X145288Y-71628
X145288Y-73152
X147828Y-73152
X148082Y-71628
X148087Y-56383
X150368Y-71628
X150368Y-73152
X150627Y-56383
X152654Y-67056
X152908Y-56388
X152908Y-73152
X153162Y-58928
X153162Y-70612
X155099Y-67056
T2
X111252Y-56896
X111252Y-59436
X111252Y-61976
X111252Y-64516
X111252Y-67056
X111252Y-69596
X111252Y-72136
X111252Y-74676
X111252Y-79756
X111252Y-82296
X111252Y-84836
X111252Y-87376
X111252Y-89916
X111252Y-92456
X118110Y-53594
X118110Y-61722
X118110Y-69342
X118110Y-77724
X118110Y-86360
X118110Y-95504
X118110Y-104140
X118110Y-113030
X120650Y-53594
X120650Y-61722
X120650Y-69342
X120650Y-77724
X120650Y-86360
X120650Y-95504
X120650Y-104140
X120650Y-113030
X123190Y-53594
X123190Y-61722
X123190Y-69342
X123190Y-77724
X123190Y-86360
X123190Y-95504
X123190Y-104140
X123190Y-113030
X125730Y-53594
X132842Y-113030
X133096Y-53594
X133096Y-61468
X133096Y-69596
X133096Y-77724
X133096Y-86360
X133096Y-95250
X133096Y-104394
X135382Y-113030
X135636Y-53594
X135636Y-61468
X135636Y-69596
X135636Y-77724
X135636Y-86360
X135636Y-95250
X135636Y-104394
X137922Y-113030
X138176Y-53594
X138176Y-61468
X138176Y-69596
X138176Y-77724
X138176Y-86360
X138176Y-95250
X138176Y-104394
X140462Y-113030
X146558Y-53594
X146558Y-61468
X146558Y-69596
X146558Y-77978
X146558Y-86360
X146558Y-95250
X146558Y-104394
X146558Y-113030
X149098Y-53594
X149098Y-61468
X149098Y-69596
X149098Y-77978
X149098Y-86360
X149098Y-95250
X149098Y-104394
X149098Y-113030
X151638Y-53594
X151638Y-61468
X151638Y-69596
X151638Y-77978
X151638Y-86360
X151638Y-95250
X151638Y-104394
X151638Y-113030
X154178Y-95250
X154178Y-104394
X154178Y-113030
X159512Y-47756
X159512Y-50296
X159512Y-52836
X159512Y-55376
X159512Y-57916
X159512Y-60456
X159512Y-62996
X159512Y-65536
X159512Y-68076
X159512Y-70616
X159512Y-74676
X159512Y-77216
X159512Y-79756
X159512Y-82296
X159512Y-84836
X159512Y-87376
X159512Y-89916
X159512Y-92456
T0
M30
