solid OpenSCAD_Model
  facet normal -1 0 0
    outer loop
      vertex -30 -2 -2
      vertex -30 2 2
      vertex -30 2 -2
    endloop
  endfacet
  facet normal -1 -0 0
    outer loop
      vertex -30 2 2
      vertex -30 -2 -2
      vertex -30 -2 2
    endloop
  endfacet
  facet normal -0 0 1
    outer loop
      vertex -30 2 2
      vertex 30 -2 2
      vertex 30 2 2
    endloop
  endfacet
  facet normal 0 0 1
    outer loop
      vertex 30 -2 2
      vertex -30 2 2
      vertex -30 -2 2
    endloop
  endfacet
  facet normal 1 -0 0
    outer loop
      vertex 30 -2 2
      vertex 30 2 -2
      vertex 30 2 2
    endloop
  endfacet
  facet normal 1 0 0
    outer loop
      vertex 30 2 -2
      vertex 30 -2 2
      vertex 30 -2 -2
    endloop
  endfacet
  facet normal 0 1 -0
    outer loop
      vertex 30 2 -2
      vertex -30 2 2
      vertex 30 2 2
    endloop
  endfacet
  facet normal 0 1 0
    outer loop
      vertex -30 2 2
      vertex 30 2 -2
      vertex -30 2 -2
    endloop
  endfacet
  facet normal 0 0 -1
    outer loop
      vertex -30 -2 -2
      vertex 30 2 -2
      vertex 30 -2 -2
    endloop
  endfacet
  facet normal -0 0 -1
    outer loop
      vertex 30 2 -2
      vertex -30 -2 -2
      vertex -30 2 -2
    endloop
  endfacet
  facet normal 0 -1 0
    outer loop
      vertex -30 -2 -2
      vertex 30 -2 2
      vertex -30 -2 2
    endloop
  endfacet
  facet normal 0 -1 -0
    outer loop
      vertex 30 -2 2
      vertex -30 -2 -2
      vertex 30 -2 -2
    endloop
  endfacet
  facet normal -1 0 0
    outer loop
      vertex -10 -2 3
      vertex -10 2 7
      vertex -10 2 3
    endloop
  endfacet
  facet normal -1 -0 0
    outer loop
      vertex -10 2 7
      vertex -10 -2 3
      vertex -10 -2 7
    endloop
  endfacet
  facet normal -0 0 1
    outer loop
      vertex -10 2 7
      vertex 10 -2 7
      vertex 10 2 7
    endloop
  endfacet
  facet normal 0 0 1
    outer loop
      vertex 10 -2 7
      vertex -10 2 7
      vertex -10 -2 7
    endloop
  endfacet
  facet normal 1 -0 0
    outer loop
      vertex 10 -2 7
      vertex 10 2 3
      vertex 10 2 7
    endloop
  endfacet
  facet normal 1 0 0
    outer loop
      vertex 10 2 3
      vertex 10 -2 7
      vertex 10 -2 3
    endloop
  endfacet
  facet normal 0 0 -1
    outer loop
      vertex -10 -2 3
      vertex 10 2 3
      vertex 10 -2 3
    endloop
  endfacet
  facet normal -0 0 -1
    outer loop
      vertex 10 2 3
      vertex -10 -2 3
      vertex -10 2 3
    endloop
  endfacet
  facet normal 0 -1 0
    outer loop
      vertex -10 -2 3
      vertex 10 -2 7
      vertex -10 -2 7
    endloop
  endfacet
  facet normal 0 -1 -0
    outer loop
      vertex 10 -2 7
      vertex -10 -2 3
      vertex 10 -2 3
    endloop
  endfacet
  facet normal 0 1 -0
    outer loop
      vertex 10 2 3
      vertex -10 2 7
      vertex 10 2 7
    endloop
  endfacet
  facet normal 0 1 0
    outer loop
      vertex -10 2 7
      vertex 10 2 3
      vertex -10 2 3
    endloop
  endfacet
endsolid OpenSCAD_Model
